<svg xmlns="http://www.w3.org/2000/svg" aria-hidden="true" style="position:absolute;width:0;height:0;overflow:hidden">
  <defs>
    <symbol id="icon-close" viewBox="0 0 32 32">
      <path fill="#fff" d="m8.533 25.333-1.867-1.867 7.467-7.467-7.467-7.467 1.867-1.867L16 14.132l7.467-7.467 1.867 1.867-7.467 7.467 7.467 7.467-1.867 1.867L16 17.866l-7.467 7.467z" style="fill:var(--color1, #fff)"/>
    </symbol>
    <symbol id="icon-down-arrow" viewBox="0 0 32 32">
      <path fill="#03daf7" d="M8.037 11.166 14.5 22.36c.825 1.43 2.175 1.43 3 0l6.463-11.195c.826-1.43.15-2.598-1.5-2.598H9.537c-1.65 0-2.326 1.169-1.5 2.599z" style="fill:var(--color2, #03daf7)"/>
    </symbol>
    <symbol id="icon-left-arrow" viewBox="0 0 32 32">
      <path fill="#fff" d="M9.414 7.586 1 16l8.414 8.414L10.828 23l-6-6h26.124v-2H4.828l6-6-1.414-1.414z" style="fill:var(--color1, #fff)"/>
    </symbol>
    <symbol id="icon-menu" viewBox="0 0 32 32">
      <path fill="#fff" d="M4 24v-2h24v2H4zm0-7v-2h24v2H4zm0-7V8h24v2H4z" style="fill:var(--color1, #fff)"/>
    </symbol>
    <symbol id="icon-right-arrow" viewBox="0 0 32 32">
      <path fill="#fff" d="M22.538 24.414 30.952 16l-8.414-8.414L21.124 9l6 6H1v2h26.124l-6 6 1.414 1.414z" style="fill:var(--color1, #fff)"/>
    </symbol>
  </defs>
</svg>
